# xmcd
#
# Track frame offsets: 
#        150
#        20837
#        41616
#        57495
#        78463
#        99550
#        115198
#        130597
#        146495
#        161289
#        174752
#        192447
#        212205
#        227675
#
# Disc length: 3256 seconds
#
# Revision: 0
# Processed by: cddbd v1.5.2PL0 Copyright (c) Steve Scherf et al.
# Submitted via: ExactAudioCopy v0.95b3
#
DISCID=ba0cb60e
DTITLE=Daniel - Nova Série
DYEAR=2009
DGENRE=Country
TTITLE0=Os Amantes
TTITLE1=Declaração de amor
TTITLE2=Amor absoluto
TTITLE3=Meu pai
TTITLE4=Adoro amar você
TTITLE5=Quando acaba uma paixão
TTITLE6=A primeira letra
TTITLE7=Eu sem você
TTITLE8=Jogado na rua
TTITLE9=Quem diria, hein ?
TTITLE10=Quando o coração se apaixona
TTITLE11=Desejo de amar
TTITLE12=Eu me amarrei
TTITLE13=Dá-me, dá-me
EXTD=
EXTT0=
EXTT1=
EXTT2=
EXTT3=
EXTT4=
EXTT5=
EXTT6=
EXTT7=
EXTT8=
EXTT9=
EXTT10=
EXTT11=
EXTT12=
EXTT13=
PLAYORDER=
